<mxfile host="65bd71144e">
    <diagram id="KjG14Q_7bZ2Fs4syXYFA" name="Top Down">
        <mxGraphModel dx="1074" dy="709" grid="1" gridSize="10" guides="1" tooltips="1" connect="1" arrows="1" fold="1" page="1" pageScale="1" pageWidth="827" pageHeight="1169" math="0" shadow="0">
            <root>
                <mxCell id="0"/>
                <mxCell id="1" parent="0"/>
                <mxCell id="QtO_xw6DOo0jZK6YUWM9-8" value="" style="edgeStyle=none;html=1;" parent="1" source="QtO_xw6DOo0jZK6YUWM9-1" target="QtO_xw6DOo0jZK6YUWM9-3" edge="1">
                    <mxGeometry relative="1" as="geometry"/>
                </mxCell>
                <mxCell id="QtO_xw6DOo0jZK6YUWM9-9" style="edgeStyle=orthogonalEdgeStyle;html=1;entryX=0.5;entryY=0;entryDx=0;entryDy=0;rounded=0;" parent="1" source="QtO_xw6DOo0jZK6YUWM9-1" target="QtO_xw6DOo0jZK6YUWM9-2" edge="1">
                    <mxGeometry relative="1" as="geometry">
                        <Array as="points">
                            <mxPoint x="414" y="160"/>
                            <mxPoint x="260" y="160"/>
                        </Array>
                    </mxGeometry>
                </mxCell>
                <mxCell id="QtO_xw6DOo0jZK6YUWM9-10" style="edgeStyle=orthogonalEdgeStyle;html=1;entryX=0.5;entryY=0;entryDx=0;entryDy=0;rounded=0;" parent="1" source="QtO_xw6DOo0jZK6YUWM9-1" target="QtO_xw6DOo0jZK6YUWM9-4" edge="1">
                    <mxGeometry relative="1" as="geometry">
                        <Array as="points">
                            <mxPoint x="414" y="160"/>
                            <mxPoint x="570" y="160"/>
                        </Array>
                    </mxGeometry>
                </mxCell>
                <mxCell id="QtO_xw6DOo0jZK6YUWM9-1" value="Number block" style="rounded=0;whiteSpace=wrap;html=1;" parent="1" vertex="1">
                    <mxGeometry x="354" y="80" width="120" height="60" as="geometry"/>
                </mxCell>
                <mxCell id="QtO_xw6DOo0jZK6YUWM9-2" value="Input" style="rounded=0;whiteSpace=wrap;html=1;" parent="1" vertex="1">
                    <mxGeometry x="200" y="180" width="120" height="60" as="geometry"/>
                </mxCell>
                <mxCell id="QtO_xw6DOo0jZK6YUWM9-3" value="Process" style="rounded=0;whiteSpace=wrap;html=1;" parent="1" vertex="1">
                    <mxGeometry x="354" y="180" width="120" height="60" as="geometry"/>
                </mxCell>
                <mxCell id="QtO_xw6DOo0jZK6YUWM9-13" value="" style="edgeStyle=orthogonalEdgeStyle;rounded=0;html=1;" parent="1" source="QtO_xw6DOo0jZK6YUWM9-4" target="QtO_xw6DOo0jZK6YUWM9-7" edge="1">
                    <mxGeometry relative="1" as="geometry"/>
                </mxCell>
                <mxCell id="QtO_xw6DOo0jZK6YUWM9-4" value="output" style="rounded=0;whiteSpace=wrap;html=1;" parent="1" vertex="1">
                    <mxGeometry x="510" y="180" width="120" height="60" as="geometry"/>
                </mxCell>
                <mxCell id="QtO_xw6DOo0jZK6YUWM9-7" value="Display block of numbers" style="rounded=0;whiteSpace=wrap;html=1;" parent="1" vertex="1">
                    <mxGeometry x="510" y="280" width="120" height="60" as="geometry"/>
                </mxCell>
            </root>
        </mxGraphModel>
    </diagram>
    <diagram id="aqkya4TFRdpiTSBKbrii" name="Flowchart">
        <mxGraphModel dx="1074" dy="709" grid="1" gridSize="10" guides="1" tooltips="1" connect="1" arrows="1" fold="1" page="1" pageScale="1" pageWidth="827" pageHeight="1169" math="0" shadow="0">
            <root>
                <mxCell id="7Z-LrOooxTyzb09muiCP-0"/>
                <mxCell id="7Z-LrOooxTyzb09muiCP-1" parent="7Z-LrOooxTyzb09muiCP-0"/>
                <mxCell id="7Z-LrOooxTyzb09muiCP-7" value="" style="edgeStyle=none;html=1;" parent="7Z-LrOooxTyzb09muiCP-1" source="7Z-LrOooxTyzb09muiCP-2" edge="1">
                    <mxGeometry relative="1" as="geometry">
                        <mxPoint x="414" y="170" as="targetPoint"/>
                    </mxGeometry>
                </mxCell>
                <mxCell id="7Z-LrOooxTyzb09muiCP-2" value="Start" style="strokeWidth=2;html=1;shape=mxgraph.flowchart.terminator;whiteSpace=wrap;" parent="7Z-LrOooxTyzb09muiCP-1" vertex="1">
                    <mxGeometry x="364" y="80" width="100" height="60" as="geometry"/>
                </mxCell>
                <mxCell id="7Z-LrOooxTyzb09muiCP-6" value="Stop" style="strokeWidth=2;html=1;shape=mxgraph.flowchart.terminator;whiteSpace=wrap;" parent="7Z-LrOooxTyzb09muiCP-1" vertex="1">
                    <mxGeometry x="815" y="640" width="100" height="60" as="geometry"/>
                </mxCell>
                <mxCell id="2" value="" style="edgeStyle=none;html=1;" edge="1" parent="7Z-LrOooxTyzb09muiCP-1" source="0" target="1">
                    <mxGeometry relative="1" as="geometry"/>
                </mxCell>
                <mxCell id="0" value="Set MIN = 1000" style="rounded=1;whiteSpace=wrap;html=1;absoluteArcSize=1;arcSize=14;strokeWidth=2;" vertex="1" parent="7Z-LrOooxTyzb09muiCP-1">
                    <mxGeometry x="364" y="170" width="100" height="40" as="geometry"/>
                </mxCell>
                <mxCell id="4" value="" style="edgeStyle=none;html=1;" edge="1" parent="7Z-LrOooxTyzb09muiCP-1" source="1" target="3">
                    <mxGeometry relative="1" as="geometry"/>
                </mxCell>
                <mxCell id="1" value="Set MAX = 2000" style="rounded=1;whiteSpace=wrap;html=1;absoluteArcSize=1;arcSize=14;strokeWidth=2;" vertex="1" parent="7Z-LrOooxTyzb09muiCP-1">
                    <mxGeometry x="364" y="240" width="100" height="40" as="geometry"/>
                </mxCell>
                <mxCell id="6" value="" style="edgeStyle=orthogonalEdgeStyle;html=1;" edge="1" parent="7Z-LrOooxTyzb09muiCP-1" source="3" target="5">
                    <mxGeometry relative="1" as="geometry"/>
                </mxCell>
                <mxCell id="3" value="Set NUMBERS_PER_LI NE = 5" style="rounded=1;whiteSpace=wrap;html=1;absoluteArcSize=1;arcSize=14;strokeWidth=2;" vertex="1" parent="7Z-LrOooxTyzb09muiCP-1">
                    <mxGeometry x="302" y="310" width="224" height="40" as="geometry"/>
                </mxCell>
                <mxCell id="8" value="" style="edgeStyle=orthogonalEdgeStyle;html=1;" edge="1" parent="7Z-LrOooxTyzb09muiCP-1" source="5">
                    <mxGeometry relative="1" as="geometry">
                        <mxPoint x="414" y="550" as="targetPoint"/>
                    </mxGeometry>
                </mxCell>
                <mxCell id="19" style="edgeStyle=orthogonalEdgeStyle;rounded=0;html=1;entryX=0.5;entryY=0;entryDx=0;entryDy=0;" edge="1" parent="7Z-LrOooxTyzb09muiCP-1" source="5" target="18">
                    <mxGeometry relative="1" as="geometry"/>
                </mxCell>
                <mxCell id="5" value="For i = MIN, i &amp;lt;= MAX, i++" style="strokeWidth=2;html=1;shape=mxgraph.flowchart.decision;whiteSpace=wrap;" vertex="1" parent="7Z-LrOooxTyzb09muiCP-1">
                    <mxGeometry x="310" y="380" width="208" height="140" as="geometry"/>
                </mxCell>
                <mxCell id="11" value="" style="edgeStyle=orthogonalEdgeStyle;html=1;" edge="1" parent="7Z-LrOooxTyzb09muiCP-1" source="9" target="10">
                    <mxGeometry relative="1" as="geometry"/>
                </mxCell>
                <mxCell id="9" value="Display i" style="shape=parallelogram;html=1;strokeWidth=2;perimeter=parallelogramPerimeter;whiteSpace=wrap;rounded=1;arcSize=12;size=0.23;" vertex="1" parent="7Z-LrOooxTyzb09muiCP-1">
                    <mxGeometry x="312" y="550" width="204" height="60" as="geometry"/>
                </mxCell>
                <mxCell id="13" value="" style="edgeStyle=orthogonalEdgeStyle;html=1;" edge="1" parent="7Z-LrOooxTyzb09muiCP-1" source="10" target="12">
                    <mxGeometry relative="1" as="geometry"/>
                </mxCell>
                <mxCell id="15" style="edgeStyle=orthogonalEdgeStyle;html=1;entryX=0.5;entryY=0;entryDx=0;entryDy=0;rounded=0;" edge="1" parent="7Z-LrOooxTyzb09muiCP-1" source="10" target="14">
                    <mxGeometry relative="1" as="geometry">
                        <Array as="points">
                            <mxPoint x="652" y="690"/>
                        </Array>
                    </mxGeometry>
                </mxCell>
                <mxCell id="10" value="if i % NUMBERS_PER_LINE == 0" style="strokeWidth=2;html=1;shape=mxgraph.flowchart.decision;whiteSpace=wrap;" vertex="1" parent="7Z-LrOooxTyzb09muiCP-1">
                    <mxGeometry x="265" y="640" width="298" height="100" as="geometry"/>
                </mxCell>
                <mxCell id="17" style="edgeStyle=orthogonalEdgeStyle;rounded=0;html=1;" edge="1" parent="7Z-LrOooxTyzb09muiCP-1" source="12">
                    <mxGeometry relative="1" as="geometry">
                        <mxPoint x="310" y="450" as="targetPoint"/>
                        <Array as="points">
                            <mxPoint x="414" y="860"/>
                            <mxPoint x="230" y="860"/>
                            <mxPoint x="230" y="450"/>
                        </Array>
                    </mxGeometry>
                </mxCell>
                <mxCell id="12" value="Display &quot;\n&quot;" style="shape=parallelogram;html=1;strokeWidth=2;perimeter=parallelogramPerimeter;whiteSpace=wrap;rounded=1;arcSize=12;size=0.23;" vertex="1" parent="7Z-LrOooxTyzb09muiCP-1">
                    <mxGeometry x="312" y="770" width="204" height="60" as="geometry"/>
                </mxCell>
                <mxCell id="16" style="edgeStyle=orthogonalEdgeStyle;rounded=0;html=1;entryX=0;entryY=0.5;entryDx=0;entryDy=0;entryPerimeter=0;" edge="1" parent="7Z-LrOooxTyzb09muiCP-1" source="14" target="5">
                    <mxGeometry relative="1" as="geometry">
                        <Array as="points">
                            <mxPoint x="652" y="860"/>
                            <mxPoint x="230" y="860"/>
                            <mxPoint x="230" y="450"/>
                        </Array>
                    </mxGeometry>
                </mxCell>
                <mxCell id="14" value="Display &quot; &quot;" style="shape=parallelogram;html=1;strokeWidth=2;perimeter=parallelogramPerimeter;whiteSpace=wrap;rounded=1;arcSize=12;size=0.23;" vertex="1" parent="7Z-LrOooxTyzb09muiCP-1">
                    <mxGeometry x="550" y="770" width="204" height="60" as="geometry"/>
                </mxCell>
                <mxCell id="20" value="" style="edgeStyle=orthogonalEdgeStyle;rounded=0;html=1;" edge="1" parent="7Z-LrOooxTyzb09muiCP-1" source="18" target="7Z-LrOooxTyzb09muiCP-6">
                    <mxGeometry relative="1" as="geometry"/>
                </mxCell>
                <mxCell id="18" value="Display &quot;Done.&quot;" style="shape=parallelogram;html=1;strokeWidth=2;perimeter=parallelogramPerimeter;whiteSpace=wrap;rounded=1;arcSize=12;size=0.23;" vertex="1" parent="7Z-LrOooxTyzb09muiCP-1">
                    <mxGeometry x="760" y="550" width="210" height="60" as="geometry"/>
                </mxCell>
                <mxCell id="21" value="yes" style="text;html=1;align=center;verticalAlign=middle;resizable=0;points=[];autosize=1;strokeColor=none;fillColor=none;" vertex="1" parent="7Z-LrOooxTyzb09muiCP-1">
                    <mxGeometry x="425" y="520" width="30" height="20" as="geometry"/>
                </mxCell>
                <mxCell id="22" value="no" style="text;html=1;align=center;verticalAlign=middle;resizable=0;points=[];autosize=1;strokeColor=none;fillColor=none;" vertex="1" parent="7Z-LrOooxTyzb09muiCP-1">
                    <mxGeometry x="515" y="420" width="30" height="20" as="geometry"/>
                </mxCell>
                <mxCell id="24" value="True" style="text;html=1;align=center;verticalAlign=middle;resizable=0;points=[];autosize=1;strokeColor=none;fillColor=none;" vertex="1" parent="7Z-LrOooxTyzb09muiCP-1">
                    <mxGeometry x="420" y="740" width="40" height="20" as="geometry"/>
                </mxCell>
                <mxCell id="25" value="False" style="text;html=1;align=center;verticalAlign=middle;resizable=0;points=[];autosize=1;strokeColor=none;fillColor=none;" vertex="1" parent="7Z-LrOooxTyzb09muiCP-1">
                    <mxGeometry x="555" y="670" width="50" height="20" as="geometry"/>
                </mxCell>
            </root>
        </mxGraphModel>
    </diagram>
</mxfile>